<?xml version="1.0" encoding="utf-8"?>
<svg viewBox="0 0 8700 6757" version="1.1" xmlns="http://www.w3.org/2000/svg" xmlns:xlink="http://www.w3.org/1999/xlink">
    <g stroke="none" stroke-width="1" fill="none" fill-rule="evenodd">
        <rect id="Land-Rectangle" stroke="#3399FF" fill="#91CE76" x="0" y="0" width="8699" height="6754"></rect>
        <g id="Coastline">
            <path d="M3285,0 L3290,26 L3296,50 L3296,91 L3280,119 L3278,153 L3271,184 L3265,208 L3263,228 L3263,244 L3264,260 L3264,279 L3260,292 L3258,307 L3257,327 L3258,340 L3250,346 L3242,352 L3231,365 L3213,370 L3199,374 L3182,376 L3166,378 L3146,384 L3131,389 L3117,392 L3102,395 L3088,400 L3072,405 L3060,412 L3048,418 L3036,430 L3027,435 L3015,436 L3007,433 L2995,431 L2985,432 L2975,438 L2964,447 L2951,463 L2943,476 L2936,487 L2930,500 L2929,510 L2929,522 L2934,533 L2943,541 L2954,543 L2966,558 L2976,562 L2993,564 L3008,566 L3025,574 L3034,588 L3032,603 L3038,613 L3049,618 L3054,628 L3053,639 L3045,643 L3034,642 L3030,638 L3029,646 L3032,654 L3030,663 L3024,673 L3016,684 L3007,690 L2997,691 L2986,690 L2968,685 L2952,679 L2935,669 L2925,661 L2918,652 L2907,656 L2892,658 L2869,655 L2856,650 L2833,650 L2816,648 L2797,647 L2783,644 L2769,644 L2750,643 L2734,640 L2724,638 L2711,637 L2696,639 L2683,634 L2669,637 L2658,644 L2649,651 L2637,653 L2628,649 L2622,642 L2614,634 L2605,631 L2593,632 L2578,640 L2571,652 L2572,665 L2574,678 L2575,691 L2575,709 L2578,717 L2588,717 L2598,711 L2606,699 L2615,690 L2629,687 L2645,688 L2658,693 L2675,707 L2684,711 L2696,713 L2716,716 L2728,725 L2737,746 L2739,765 L2743,783 L2738,800 L2732,811 L2721,821 L2703,821 L2691,823 L2675,829 L2664,842 L2651,849 L2641,854 L2629,851 L2619,850 L2604,846 L2589,836 L2566,826 L2540,816 L2524,817 L2507,820 L2494,825 L2478,831 L2458,839 L2444,846 L2430,847 L2415,849 L2399,845 L2389,840 L2386,828 L2376,815 L2361,812 L2362,803 L2363,791 L2357,777 L2342,769 L2329,769 L2312,765 L2298,759 L2295,751 L2304,739 L2311,730 L2308,719 L2301,711 L2312,702 L2324,699 L2340,698 L2356,695 L2367,686 L2371,675 L2373,664 L2375,655 L2385,647 L2392,635 L2396,623 L2396,609 L2391,597 L2379,592 L2371,589 L2373,579 L2361,579 L2349,577 L2338,582 L2326,585 L2313,589 L2299,594 L2290,600 L2279,599 L2269,592 L2262,599 L2250,606 L2239,609 L2224,612 L2206,622 L2188,632 L2173,641 L2155,648 L2135,655 L2119,665 L2103,672 L2097,666 L2093,658 L2083,661 L2065,670 L2047,681 L2024,695 L2005,701 L1988,706 L1977,711 L1960,713 L1947,711 L1936,712 L1916,726 L1896,734 L1883,733 L1870,735 L1852,740 L1835,742 L1815,752 L1800,763 L1788,770 L1775,779 L1763,785 L1748,791 L1738,795 L1721,804 L1705,812 L1689,820 L1678,829 L1666,838 L1654,848 L1640,851 L1627,854 L1616,863 L1606,870 L1598,879 L1589,885 L1579,890 L1570,888 L1558,888 L1549,902 L1543,915 L1535,927 L1528,942 L1520,954 L1512,964 L1505,974 L1496,986 L1494,994 L1490,1004 L1492,1014 L1495,1023 L1502,1034 L1509,1044 L1515,1057 L1525,1063 L1542,1058 L1553,1059 L1564,1060 L1575,1064 L1586,1072 L1603,1071 L1622,1074 L1635,1076 L1650,1078 L1662,1086 L1672,1092 L1676,1104 L1672,1118 L1666,1125 L1654,1136 L1639,1143 L1611,1148 L1600,1156 L1590,1163 L1580,1169 L1565,1169 L1552,1173 L1544,1187 L1535,1198 L1525,1203 L1513,1199 L1504,1197 L1491,1199 L1480,1205 L1459,1226 L1454,1237 L1443,1247 L1435,1264 L1417,1285 L1403,1295 L1392,1305 L1380,1311 L1365,1316 L1350,1323 L1336,1324 L1325,1330 L1313,1332 L1303,1334 L1295,1332 L1287,1325 L1277,1318 L1268,1316 L1260,1318 L1252,1325 L1251,1336 L1250,1362 L1250,1379 L1247,1392 L1246,1403 L1250,1420 L1253,1438 L1255,1452 L1258,1465 L1261,1482 L1262,1490 L1260,1501 L1257,1524 L1255,1538 L1252,1555 L1248,1570 L1245,1583 L1243,1599 L1239,1617 L1237,1635 L1238,1658 L1244,1675 L1255,1688 L1265,1695 L1271,1706 L1268,1718 L1273,1723 L1288,1727 L1306,1727 L1322,1730 L1328,1742 L1324,1756 L1316,1767 L1313,1778 L1316,1789 L1323,1800 L1336,1805 L1349,1805 L1361,1803 L1382,1805 L1399,1809 L1415,1812 L1428,1817 L1438,1828 L1447,1838 L1455,1850 L1459,1863 L1467,1871 L1480,1872 L1490,1880 L1501,1890 L1513,1899 L1528,1897 L1537,1887 L1546,1873 L1551,1860 L1550,1850 L1551,1836 L1546,1820 L1544,1799 L1541,1779 L1536,1762 L1537,1743 L1548,1729 L1562,1728 L1575,1735 L1595,1742 L1623,1757 L1644,1757 L1670,1774 L1688,1778 L1706,1786 L1723,1797 L1729,1807 L1744,1816 L1752,1823 L1762,1823 L1768,1828 L1779,1826 L1794,1821 L1807,1818 L1817,1821 L1830,1828 L1853,1836 L1874,1840 L1893,1842 L1908,1844 L1930,1840 L1943,1837 L1961,1830 L1978,1824 L1994,1822 L2012,1816 L2030,1805 L2056,1796 L2079,1785 L2093,1772 L2095,1774 L2109,1764 L2120,1752 L2131,1734 L2139,1710 L2147,1688 L2155,1682 L2158,1689 L2155,1709 L2157,1723 L2155,1747 L2152,1762 L2143,1771 L2130,1784 L2116,1799 L2098,1820 L2084,1834 L2072,1845 L2059,1858 L2045,1869 L2028,1877 L2012,1885 L2001,1895 L1990,1900 L1981,1910 L1973,1918 L1965,1926 L1957,1934 L1947,1943 L1936,1945 L1921,1942 L1911,1936 L1900,1930 L1891,1926 L1876,1921 L1863,1914 L1855,1908 L1842,1906 L1827,1913 L1824,1923 L1823,1941 L1826,1950 L1836,1967 L1837,1977 L1840,1983 L1830,1983 L1822,1985 L1815,1988 L1805,1994 L1797,2003 L1788,2010 L1781,2005 L1780,1998 L1783,1990 L1789,1981 L1794,1973 L1795,1965 L1796,1956 L1793,1947 L1785,1944 L1775,1949 L1769,1954 L1756,1963 L1738,1960 L1721,1964 L1712,1969 L1713,1972 L1721,1971 L1730,1979 L1728,1986 L1722,1994 L1711,1998 L1694,2001 L1680,2003 L1666,2005 L1656,2009 L1644,2015 L1630,2018 L1618,2021 L1607,2019 L1596,2017 L1589,2007 L1585,1997 L1580,1987 L1576,1976 L1568,1965 L1562,1959 L1551,1955 L1541,1954 L1535,1960 L1536,1968 L1538,1982 L1539,1997 L1541,2010 L1537,2022 L1528,2036 L1534,2039 L1542,2046 L1542,2056 L1536,2075 L1529,2089 L1525,2099 L1525,2114 L1528,2124 L1532,2136 L1539,2152 L1542,2168 L1540,2187 L1534,2201 L1528,2214 L1521,2229 L1531,2233 L1535,2245 L1535,2257 L1538,2273 L1537,2293 L1537,2307 L1541,2317 L1558,2323 L1570,2326 L1584,2325 L1600,2317 L1620,2312 L1623,2328 L1634,2326 L1649,2327 L1661,2326 L1670,2325 L1685,2330 L1701,2339 L1708,2354 L1703,2366 L1699,2379 L1703,2392 L1712,2401 L1723,2412 L1731,2428 L1734,2444 L1734,2463 L1741,2483 L1751,2496 L1768,2503 L1787,2510 L1801,2523 L1813,2537 L1833,2541 L1847,2543 L1874,2540 L1891,2535 L1907,2526 L1913,2532 L1913,2544 L1922,2541 L1933,2538 L1943,2536 L1953,2535 L1957,2541 L1955,2548 L1956,2559 L1961,2567 L1970,2571 L1990,2572 L2022,2571 L2055,2575 L2078,2578 L2092,2588 L2114,2616 L2124,2624 L2133,2628 L2134,2633 L2130,2641 L2124,2646 L2124,2649 L2137,2649 L2138,2658 L2148,2667 L2165,2674 L2188,2675 L2216,2674 L2233,2670 L2250,2664 L2265,2652 L2276,2641 L2286,2630 L2297,2623 L2307,2612 L2324,2600 L2327,2581 L2326,2571 L2328,2562 L2328,2550 L2332,2535 L2342,2521 L2353,2512 L2360,2504 L2369,2491 L2370,2482 L2375,2463 L2369,2453 L2367,2446 L2371,2429 L2383,2426 L2383,2438 L2388,2452 L2390,2469 L2379,2497 L2371,2516 L2358,2527 L2351,2541 L2348,2552 L2347,2570 L2347,2589 L2341,2599 L2340,2609 L2344,2618 L2350,2630 L2351,2639 L2347,2654 L2340,2665 L2330,2679 L2326,2695 L2325,2714 L2321,2727 L2312,2743 L2303,2757 L2298,2772 L2297,2786 L2296,2798 L2301,2811 L2310,2821 L2315,2831 L2311,2841 L2307,2854 L2301,2862 L2312,2868 L2312,2876 L2311,2888 L2312,2901 L2319,2911 L2336,2920 L2348,2918 L2362,2910 L2369,2897 L2373,2884 L2362,2877 L2364,2869 L2374,2867 L2385,2869 L2391,2866 L2393,2855 L2398,2843 L2404,2825 L2406,2811 L2414,2795 L2422,2780 L2429,2769 L2438,2757 L2443,2747 L2451,2738 L2459,2727 L2459,2715 L2464,2715 L2464,2727 L2471,2735 L2479,2749 L2486,2759 L2496,2770 L2503,2782 L2504,2794 L2506,2804 L2503,2817 L2501,2832 L2494,2842 L2485,2851 L2483,2862 L2492,2872 L2506,2880 L2508,2893 L2504,2905 L2497,2923 L2485,2937 L2471,2953 L2467,2967 L2469,2983 L2477,3003 L2488,3020 L2503,3044 L2513,3060 L2510,3071 L2511,3083 L2524,3085 L2533,3095 L2547,3112 L2554,3121 L2571,3128 L2591,3139 L2609,3143 L2624,3150 L2637,3146 L2648,3135 L2661,3127 L2668,3114 L2688,3095 L2704,3084 L2718,3081 L2739,3074 L2757,3069 L2771,3056 L2787,3044 L2803,3030 L2814,3015 L2825,2994 L2839,2953 L2848,2953 L2845,2978 L2844,2991 L2835,3009 L2825,3034 L2810,3055 L2805,3067 L2799,3080 L2794,3100 L2799,3113 L2801,3133 L2810,3154 L2820,3172 L2831,3187 L2838,3201 L2840,3213 L2831,3228 L2825,3240 L2817,3248 L2808,3259 L2800,3266 L2790,3278 L2780,3288 L2779,3298 L2783,3312 L2779,3328 L2781,3344 L2779,3358 L2777,3378 L2781,3395 L2790,3410 L2796,3428 L2793,3438 L2781,3457 L2780,3471 L2785,3466 L2797,3464 L2801,3490 L2811,3477 L2825,3468 L2841,3462 L2854,3458 L2870,3451 L2889,3442 L2903,3430 L2920,3420 L2900,3438 L2893,3451 L2886,3469 L2880,3489 L2872,3501 L2861,3508 L2852,3518 L2843,3519 L2831,3524 L2821,3536 L2813,3545 L2822,3553 L2832,3564 L2834,3582 L2835,3594 L2838,3613 L2845,3623 L2852,3634 L2861,3644 L2869,3655 L2868,3667 L2861,3677 L2851,3684 L2839,3689 L2830,3691 L2826,3697 L2841,3706 L2840,3714 L2839,3724 L2847,3736 L2854,3742 L2854,3754 L2862,3767 L2864,3781 L2860,3796 L2860,3806 L2852,3815 L2848,3825 L2848,3833 L2853,3840 L2862,3853 L2863,3870 L2860,3884 L2857,3901 L2858,3915 L2868,3926 L2875,3942 L2882,3947 L2892,3975 L2895,3999 L2886,4028 L2875,4037 L2868,4046 L2863,4057 L2855,4064 L2849,4064 L2843,4056 L2838,4061 L2838,4076 L2831,4096 L2822,4115 L2813,4134 L2800,4147 L2781,4167 L2766,4185 L2753,4197 L2753,4214 L2745,4221 L2738,4230 L2731,4239 L2720,4250 L2712,4258 L2694,4268 L2688,4272 L2685,4282 L2676,4286 L2665,4290 L2645,4290 L2631,4294 L2629,4302 L2619,4318 L2599,4316 L2586,4319 L2579,4332 L2579,4346 L2582,4359 L2586,4369 L2604,4374 L2623,4369 L2635,4368 L2651,4373 L2665,4374 L2680,4373 L2688,4365 L2699,4358 L2708,4350 L2723,4353 L2738,4344 L2748,4333 L2761,4330 L2782,4324 L2803,4321 L2817,4316 L2832,4307 L2840,4298 L2849,4286 L2860,4273 L2872,4262 L2886,4258 L2903,4258 L2918,4266 L2924,4258 L2929,4248 L2944,4237 L2961,4233 L2970,4233 L2982,4239 L2984,4250 L2990,4260 L3000,4262 L3011,4275 L3032,4265 L3038,4267 L3049,4272 L3066,4275 L3080,4282 L3095,4294 L3129,4290 L3146,4286 L3164,4296 L3174,4311 L3196,4324 L3204,4337 L3209,4341 L3212,4330 L3219,4319 L3223,4304 L3224,4291 L3219,4276 L3219,4260 L3223,4233 L3219,4209 L3219,4197 L3217,4167 L3219,4149 L3229,4128 L3233,4133 L3233,4161 L3235,4175 L3237,4192 L3233,4205 L3236,4221 L3242,4237 L3249,4248 L3262,4260 L3275,4272 L3284,4286 L3298,4290 L3321,4294 L3339,4294 L3348,4279 L3358,4268 L3369,4265 L3378,4261 L3383,4248 L3391,4238 L3399,4226 L3402,4202 L3408,4186 L3419,4172 L3426,4161 L3441,4156 L3456,4156 L3470,4160 L3476,4152 L3491,4145 L3499,4137 L3511,4132 L3522,4126 L3535,4126 L3545,4132 L3557,4137 L3568,4133 L3572,4129 L3578,4123 L3587,4122 L3598,4116 L3609,4117 L3618,4117 L3631,4119 L3644,4110 L3659,4098 L3679,4085 L3694,4077 L3706,4069 L3717,4069 L3712,4077 L3709,4096 L3700,4105 L3700,4122 L3709,4128 L3717,4125 L3728,4122 L3742,4119 L3761,4125 L3775,4119 L3795,4116 L3805,4110 L3817,4105 L3826,4100 L3843,4102 L3850,4098 L3860,4092 L3871,4077 L3893,4064 L3913,4066 L3930,4068 L3938,4075 L3950,4076 L3963,4085 L3976,4094 L3987,4107 L4007,4109 L4032,4109 L4050,4102 L4067,4096 L4085,4094 L4104,4092 L4119,4104 L4131,4108 L4128,4124 L4131,4134 L4131,4156 L4126,4164 L4114,4183 L4102,4197 L4102,4206 L4095,4218 L4088,4226 L4079,4214 L4078,4201 L4069,4188 L4050,4184 L4043,4186 L4032,4198 L4032,4209 L4039,4214 L4037,4221 L4028,4228 L4027,4237 L4021,4242 L4019,4252 L4023,4273 L4029,4275 L4037,4282 L4049,4279 L4064,4273 L4079,4261 L4091,4262 L4091,4275 L4083,4286 L4079,4290 L4075,4298 L4071,4305 L4069,4311 L4066,4320 L4066,4321 L4064,4324 L4066,4330 L4075,4346 L4083,4354 L4095,4371 L4094,4385 L4104,4405 L4111,4418 L4115,4443 L4126,4451 L4128,4457 L4135,4465 L4150,4459 L4159,4459 L4168,4466 L4175,4470 L4177,4476 L4184,4488 L4188,4499 L4191,4511 L4190,4517 L4194,4522 L4193,4532 L4197,4538 L4207,4550 L4219,4564 L4227,4544 L4239,4533 L4250,4513 L4258,4494 L4255,4477 L4260,4464 L4263,4451 L4258,4433 L4260,4423 L4263,4418 L4272,4421 L4280,4422 L4289,4411 L4291,4397 L4293,4381 L4305,4369 L4318,4369 L4325,4371 L4340,4381 L4345,4392 L4360,4397 L4365,4385 L4365,4373 L4365,4358 L4374,4344 L4384,4336 L4400,4331 L4416,4316 L4430,4311 L4442,4307 L4455,4304 L4465,4300 L4483,4296 L4474,4310 L4469,4319 L4462,4324 L4458,4334 L4446,4341 L4443,4351 L4437,4359 L4430,4371 L4427,4381 L4437,4395 L4451,4397 L4465,4398 L4477,4402 L4489,4402 L4499,4400 L4509,4415 L4516,4418 L4524,4423 L4531,4427 L4536,4438 L4544,4443 L4559,4459 L4560,4469 L4563,4478 L4564,4499 L4564,4509 L4565,4513 L4565,4532 L4565,4544 L4565,4572 L4564,4581 L4564,4594 L4559,4601 L4549,4610 L4536,4623 L4517,4634 L4494,4643 L4482,4655 L4491,4663 L4494,4675 L4490,4687 L4490,4693 L4498,4701 L4507,4711 L4505,4719 L4503,4728 L4501,4743 L4503,4764 L4509,4781 L4518,4792 L4525,4799 L4527,4818 L4527,4836 L4516,4852 L4506,4868 L4498,4879 L4489,4895 L4486,4910 L4487,4923 L4492,4934 L4499,4944 L4503,4955 L4508,4964 L4510,4979 L4512,4993 L4510,5010 L4505,5021 L4502,5035 L4494,5049 L4494,5058 L4505,5058 L4521,5064 L4532,5070 L4544,5076 L4555,5075 L4570,5071 L4584,5074 L4596,5076 L4602,5083 L4613,5089 L4627,5091 L4646,5096 L4658,5105 L4669,5111 L4682,5117 L4690,5120 L4698,5126 L4704,5129 L4715,5140 L4724,5144 L4736,5155 L4721,5163 L4707,5156 L4692,5152 L4676,5139 L4666,5136 L4655,5130 L4644,5121 L4632,5114 L4616,5112 L4607,5113 L4601,5117 L4596,5118 L4592,5122 L4586,5125 L4582,5136 L4574,5140 L4569,5148 L4561,5148 L4553,5140 L4548,5135 L4541,5127 L4536,5120 L4526,5116 L4515,5121 L4501,5122 L4488,5121 L4483,5134 L4482,5146 L4480,5159 L4474,5171 L4467,5177 L4460,5181 L4451,5180 L4443,5178 L4432,5179 L4416,5199 L4407,5206 L4400,5210 L4389,5212 L4384,5222 L4375,5228 L4367,5241 L4363,5252 L4356,5262 L4340,5288 L4316,5313 L4308,5329 L4289,5336 L4286,5348 L4277,5364 L4263,5384 L4249,5383 L4237,5399 L4237,5409 L4230,5417 L4223,5421 L4212,5429 L4208,5439 L4203,5445 L4193,5453 L4179,5451 L4164,5448 L4157,5444 L4142,5440 L4131,5435 L4119,5429 L4106,5425 L4094,5425 L4085,5428 L4078,5428 L4067,5434 L4058,5438 L4045,5442 L4034,5455 L4018,5458 L3995,5455 L3984,5458 L3971,5455 L3965,5452 L3957,5447 L3947,5440 L3940,5435 L3929,5434 L3913,5439 L3901,5448 L3896,5460 L3894,5477 L3890,5495 L3890,5513 L3892,5528 L3890,5544 L3892,5562 L3892,5572 L3888,5583 L3882,5599 L3885,5611 L3882,5630 L3874,5637 L3865,5655 L3853,5666 L3843,5676 L3833,5689 L3833,5699 L3847,5692 L3856,5694 L3865,5695 L3878,5705 L3891,5695 L3901,5688 L3910,5685 L3929,5666 L3947,5647 L3940,5626 L3951,5615 L3965,5602 L3968,5597 L3976,5593 L3984,5580 L3995,5568 L4003,5561 L4010,5556 L4018,5549 L4025,5547 L4036,5554 L4043,5566 L4055,5572 L4068,5573 L4075,5576 L4091,5575 L4107,5572 L4119,5566 L4133,5559 L4146,5552 L4168,5540 L4188,5532 L4207,5534 L4223,5540 L4227,5556 L4227,5566 L4219,5576 L4212,5576 L4203,5580 L4194,5585 L4184,5589 L4178,5600 L4168,5606 L4163,5615 L4153,5630 L4162,5630 L4175,5630 L4188,5630 L4196,5637 L4204,5640 L4212,5642 L4224,5642 L4239,5640 L4252,5637 L4259,5633 L4273,5637 L4287,5637 L4303,5633 L4313,5633 L4316,5637 L4313,5642 L4307,5647 L4299,5655 L4295,5660 L4281,5663 L4274,5673 L4267,5682 L4252,5686 L4231,5689 L4213,5689 L4202,5695 L4196,5695 L4190,5697 L4180,5693 L4172,5698 L4153,5699 L4138,5711 L4128,5711 L4111,5714 L4095,5717 L4088,5722 L4080,5722 L4068,5722 L4055,5722 L4034,5720 L4025,5730 L4019,5742 L3995,5729 L3984,5726 L3971,5726 L3957,5726 L3944,5726 L3931,5734 L3918,5739 L3904,5745 L3890,5752 L3890,5764 L3882,5771 L3878,5776 L3871,5776 L3860,5782 L3850,5782 L3836,5792 L3826,5801 L3822,5809 L3819,5819 L3816,5835 L3806,5848 L3781,5860 L3761,5867 L3735,5883 L3706,5906 L3689,5922 L3669,5934 L3648,5950 L3634,5962 L3628,5976 L3628,5989 L3618,6010 L3602,6013 L3578,6014 L3551,6034 L3522,6058 L3510,6074 L3507,6085 L3504,6100 L3491,6122 L3484,6133 L3473,6144 L3452,6149 L3418,6154 L3399,6156 L3378,6165 L3357,6176 L3348,6184 L3339,6197 L3331,6214 L3328,6234 L3334,6253 L3332,6271 L3326,6283 L3309,6299 L3293,6324 L3290,6343 L3289,6362 L3284,6378 L3275,6388 L3265,6391 L3245,6388 L3223,6380 L3203,6369 L3180,6370 L3157,6384 L3134,6383 L3117,6383 L3105,6378 L3080,6375 L3066,6380 L3055,6390 L3045,6400 L3038,6403 L3031,6406 L3026,6418 L3023,6430 L3014,6437 L3000,6437 L2992,6443 L2981,6450 L2969,6465 L2963,6472 L2963,6489 L2961,6501 L2954,6512 L2941,6516 L2927,6519 L2919,6525 L2916,6539 L2917,6549 L2924,6564 L2930,6583 L2929,6600 L2934,6613 L2941,6629 L2949,6634 L2959,6646 L2970,6664 L2976,6678 L2977,6697 L2971,6716 L2966,6739 L2971,6755 L0,6755 L0,0 L2328,0 L2342,15 L2353,26 L2362,43 L2378,58 L2395,77 L2402,103 L2408,120 L2402,143 L2391,164 L2380,184 L2369,202 L2379,218 L2396,217 L2410,209 L2427,225 L2430,247 L2430,267 L2434,282 L2447,293 L2463,300 L2485,301 L2509,298 L2531,301 L2545,311 L2563,330 L2584,345 L2596,358 L2615,357 L2629,345 L2647,328 L2664,317 L2678,309 L2686,298 L2673,284 L2660,276 L2654,263 L2635,256 L2620,248 L2609,218 L2589,215 L2564,213 L2527,197 L2504,188 L2486,175 L2476,165 L2468,148 L2467,126 L2465,111 L2467,96 L2473,81 L2486,66 L2504,56 L2509,38 L2517,23 L2522,9 L2531,0 L3285,0 Z" id="main-coastline" fill="#1C65AE"></path>
            <path d="M4403,4481 L4384,4494 L4372,4509 L4360,4531 L4346,4548 L4326,4559 L4310,4572 L4304,4584 L4304,4606 L4297,4621 L4286,4637 L4304,4630 L4330,4622 L4349,4626 L4368,4628 L4381,4628 L4396,4634 L4400,4623 L4397,4610 L4397,4597 L4401,4583 L4412,4574 L4424,4564 L4433,4549 L4429,4536 L4433,4525 L4436,4515 L4427,4502 L4414,4494 L4403,4481 Z" id="Tol-Falas" fill="#91CE76"></path>
        </g>
        <g id="Rivers-/-Lakes" transform="translate(1492, 814)">
            <path d="M55,920 L42,913 L34,907 L19,904 L12,899 L5,888 L4,881 L0,872 L1,864 L6,857 L12,845 L16,841 L19,828 L16,820 L11,811 L9,804 L12,791 L15,783 L25,772 L33,765 L40,759 L44,751 L55,739 L65,730 L71,722 L73,710 L73,696 L68,683 L65,671 L64,659 L65,648 L72,638 L81,628 L87,623 L93,617 L94,595 L90,583 L94,570 L96,561 L99,557 L100,548 L106,538 L112,529 L117,524 L128,518 L141,517 L158,517 L166,513 L172,511 L180,498 L185,489 L183,476 L179,468 L180,463 L183,458 L187,450 L192,444 L200,442 L207,437 L216,437 L224,440 L233,441 L240,440 L246,436 L256,436 L265,435" id="Unknown-River-(Forlindon)" stroke="#1C65AE" stroke-width="5"></path>
            <g id="Lhûn-System" transform="translate(470, 0)" stroke="#1C65AE">
                <path d="M190,876 L201,846 L213,824 L233,807 L255,802 L279,781 L291,766 L310,746 L324,723 L327,711 L320,700 L332,692 L341,679 L345,659 L347,630 L338,615 L348,595 L341,583 L340,576 L344,567 L344,552 L344,533 L343,525 L331,516 L328,510 L327,497 L324,486 L315,479 L306,472 L301,467 L301,459 L304,448 L306,437 L303,430 L298,420 L295,409 L294,400 L294,391 L289,389" id="Lower-Lhûn" stroke-width="8"></path>
                <path d="M341,679 L353,677 L358,673 L361,667 L365,664 L373,652 L385,642 L398,642 L408,629 L417,620 L428,612 L436,613 L446,606 L453,602 L466,595 L476,586 L488,576 L501,568 L510,569 L519,563 L531,557 L545,554 L557,557 L566,551" id="Upper-Lhûn-1" stroke-width="5"></path>
                <path d="M292,390 L282,387 L277,382 L272,375 L264,372 L256,373 L250,363 L243,365 L236,364 L229,359 L223,358 L206,361 L199,361 L194,360 L188,360 L183,353 L178,350 L170,352 L166,358 L161,364 L154,366 L149,364 L139,353 L133,352 L127,353 L113,346 L108,346 L102,349 L96,353 L88,353 L82,352 L76,361 L71,372 L67,376 L59,381 L51,384 L44,393 L38,399 L31,402 L21,403 L12,400 L0,397" id="Upper-Lhûn-2" stroke-width="5"></path>
                <path d="M292,392 L289,369 L296,359 L299,353 L308,346 L311,340 L310,324 L311,314 L320,307 L328,298 L327,284 L328,278 L337,268 L340,264 L344,255 L348,246 L347,237 L348,232 L343,224 L337,211 L334,206 L329,201 L329,192 L323,187 L318,183 L314,181 L313,174 L311,169 L306,165 L299,162 L294,158 L292,152 L291,143 L291,132 L286,127 L279,123 L271,117 L266,114 L260,113 L255,114 L250,108 L246,105 L237,106 L222,106 L209,105 L198,106 L191,99 L183,97 L176,101 L165,105 L153,105 L146,105 L142,96 L139,89 L138,80 L142,68 L145,58 L148,48 L153,34 L154,23 L154,16 L153,10 L151,7 L149,4 L150,0" id="Upper-Lhûn-3" stroke-width="5"></path>
            </g>
            <g id="Brandywine-System" transform="translate(885, 564)">
                <path d="M211,138 L220,124 L223,110 L229,94 L234,82 L240,69 L246,67 L256,59 L264,48 L274,49 L291,43 L302,29 L315,0 L318,11 L323,15 L314,31 L312,38 L315,48 L323,48 L332,51 L324,58 L322,64 L322,73 L315,78 L309,84 L299,100 L293,110 L287,114 L265,118 L253,124 L245,123 L238,119 L229,124 L211,138 Z" id="Lake-Evendim" fill="#1C65AE"></path>
                <path d="M0,1053 L12,1035 L43,1032 L72,1035 L102,1038 L131,1038 L157,1044 L180,1059 L204,1073 L220,1077 L244,1069 L253,1053 L260,1035 L250,1025 L243,1012 L254,995 L250,972 L250,950 L253,930 L262,915 L277,904 L293,892 L310,880 L329,878 L347,873 L361,879 L369,868 L377,855 L395,844 L416,838 L439,825 L467,802 L488,787 L498,778 L518,772 L535,762 L545,746 L554,731 L566,719 L577,703 L586,692 L592,676 L596,657 L596,638 L589,623 L580,613 L567,608 L557,606 L549,598 L545,585 L551,575 L548,564 L557,549 L553,535 L542,527 L528,518 L514,512 L501,512 L486,513 L477,508 L468,497 L457,488 L451,481 L451,466 L455,449 L453,435 L457,425 L455,410 L454,396 L454,378 L454,356 L452,344 L440,334 L434,319 L429,309 L420,303 L413,296 L418,281 L418,260 L419,244 L434,236 L435,224 L441,213 L452,210 L457,200 L468,192 L487,185 L498,180 L498,169 L498,160 L503,149 L505,135 L498,129 L498,118 L496,110 L488,108 L479,101 L469,103 L458,105 L446,105 L436,105 L424,109 L413,113 L402,108 L393,103 L385,110 L374,116 L366,108 L360,102 L353,105 L351,95 L343,91 L334,85 L325,85 L314,86 L303,86" id="Baraduin-/-Brandywine" stroke="#1C65AE" stroke-width="5"></path>
            </g>
            <g id="Greyflood-System" transform="translate(1351, 560)" stroke="#1C65AE">
                <path d="M0,1579 L13,1536 L27,1498 L38,1455 L45,1443 L59,1440 L69,1419 L76,1412 L97,1402 L112,1400 L135,1378 L153,1373 L171,1363 L184,1347 L191,1325 L195,1308 L201,1291 L214,1280 L227,1270 L236,1267 L253,1257 L265,1246 L274,1235 L280,1218 L285,1206 L294,1189 L298,1186 L310,1184 L318,1176 L322,1170 L334,1161 L345,1156 L353,1153 L370,1143 L385,1135 L395,1129 L399,1123 L408,1121 L418,1110 L424,1101 L432,1094 L446,1091 L457,1088 L467,1079 L476,1066 L488,1058 L500,1050 L510,1042 L525,1039 L547,1019" id="Gwathló-/-Greyflood" stroke-width="8"></path>
                <path d="M544,1021 L574,1016 L602,1012 L609,1015 L625,1016 L654,1029 L666,1034 L675,1033 L679,1027 L682,1021 L688,1015 L694,1020 L696,1029 L700,1034 L710,1030 L720,1029 L728,1029 L733,1036 L742,1045 L755,1051 L762,1055 L770,1064 L778,1079 L783,1086 L794,1088 L809,1084 L821,1080 L832,1080 L846,1086 L859,1085 L873,1079 L887,1073 L899,1065 L910,1059 L917,1057 L929,1060 L942,1059 L954,1054 L968,1052 L981,1050 L994,1052 L1005,1053 L1012,1049 L1022,1048 L1029,1053 L1034,1059 L1039,1066 L1045,1073 L1052,1075 L1060,1070 L1070,1065 L1079,1060 L1088,1063 L1094,1068 L1102,1074 L1110,1069 L1117,1063 L1127,1055" id="Glanduin" stroke-width="5"></path>
                <g id="Hoarwell-System" transform="translate(546, 0)" stroke-width="5">
                    <path d="M0,1020 L9,1003 L20,990 L27,977 L35,947 L43,941 L54,936 L57,928 L59,917 L66,908 L74,904 L80,900 L85,894 L95,885 L110,877 L127,860 L136,856 L151,846 L159,842 L171,837 L182,832 L189,824 L196,817 L208,808 L221,803 L229,800 L236,793 L244,788 L259,783 L275,778 L295,762 L310,745 L317,722 L317,709 L318,695 L318,680 L324,672 L332,661 L332,647 L332,637 L333,626 L338,618 L338,607 L334,600 L329,593 L330,587 L334,580 L342,570 L344,562 L340,551 L334,540 L331,532 L335,526 L343,518 L347,509 L346,497 L347,483 L344,473 L353,459 L353,451 L353,441 L354,434 L358,428 L358,418 L357,410 L361,399 L364,386 L365,363 L366,353 L375,345 L376,329 L382,320 L390,307 L397,299 L402,288 L405,277 L407,260 L409,245 L412,236 L418,229 L427,224 L437,215 L443,203 L448,193 L456,188 L461,181 L461,173 L464,165 L474,162 L485,162 L496,157 L508,154 L521,156 L531,151 L539,145 L544,133 L545,122 L551,111 L561,108 L569,108 L577,95 L585,82 L588,71 L593,59 L599,51 L603,43 L612,37 L621,30 L636,32 L645,32 L652,33 L659,37 L668,43 L675,40 L684,35 L697,30 L702,27 L715,31 L725,28 L736,22 L749,19 L761,19 L775,19 L793,16 L802,13 L816,3 L824,0 L833,1 L838,7 L846,13 L855,13 L859,7" id="Hoarwell-/-Mitheithel"></path>
                    <g id="Bruinen-System" transform="translate(308, 313)">
                        <path d="M0,436 L21,424 L30,416 L43,415 L55,409 L63,397 L75,394 L87,390 L93,382 L102,373 L106,367 L116,362 L122,357 L126,354 L128,346 L132,336 L137,331 L141,327 L148,324 L157,325 L162,321 L165,315 L167,307 L171,301 L184,297 L194,290 L201,284 L205,276 L209,272 L215,270 L221,266 L226,263 L228,257 L236,248 L246,242 L252,234 L260,229 L263,225 L264,218 L269,211 L273,207 L280,200 L288,191 L290,183 L293,175 L300,171 L309,165 L312,156 L317,142 L325,132 L331,128 L339,114 L341,101 L344,87 L350,79 L358,70 L364,66 L368,58 L372,48 L378,41 L390,36 L397,32 L407,29 L416,30 L424,30 L433,24 L443,23 L454,24 L466,23 L487,17 L499,16 L508,17 L516,15 L522,12 L528,8 L540,0" id="Loudwater-/-Bruinen"></path>
                        <path d="M361,69 L374,70 L383,69 L388,69 L405,71 L414,74 L424,75 L432,70 L441,68 L448,68 L453,72 L458,74 L469,74" id="Southern-Bruinen-Source"></path>
                    </g>
                </g>
            </g>
            <g id="Isen-System" transform="translate(1421, 2261)" stroke="#1C65AE" stroke-width="5">
                <path d="M0,347 L17,330 L33,316 L37,306 L51,299 L66,284 L86,274 L99,270 L114,270 L121,271 L134,262 L147,265 L162,262 L170,261 L185,268 L194,273 L202,280 L216,278 L226,287 L230,300 L235,311 L241,320 L254,321 L264,321 L273,330 L278,340 L288,344 L299,342 L306,344 L313,356 L325,353 L332,348 L343,350 L350,357 L364,349 L381,336 L404,332 L420,312 L428,303 L439,289 L450,281 L461,269 L471,261 L481,261 L487,259 L498,248 L505,241 L516,240 L528,244 L540,247 L552,244 L566,240 L579,240 L591,245 L605,245 L618,246 L629,253 L637,262 L648,264 L660,260 L669,256 L675,245 L678,237 L687,232 L694,230 L702,235 L711,236 L721,230 L731,229 L741,233 L752,234 L764,233 L773,237 L781,244 L791,242 L800,243 L809,248 L819,244 L828,241 L834,237 L840,239 L848,242 L863,241 L873,241 L880,236 L889,236 L898,227 L905,218 L913,210 L920,203 L922,195 L922,186 L926,176 L928,168 L927,160 L921,155 L919,150 L920,144 L924,138 L925,125 L927,117 L927,106 L931,97 L929,91 L933,81 L926,69 L931,62 L933,51 L933,43 L931,32 L928,25 L924,15 L921,9 L920,0" id="Isen-/-Angren"></path>
                <path d="M453,278 L464,282 L473,282 L480,292 L486,295 L498,294 L512,293 L523,296 L530,300 L543,295 L550,293 L564,297 L574,297 L586,294 L594,290 L604,292 L615,295 L624,299 L633,301 L641,300 L650,307 L657,312 L667,312 L677,312 L690,316 L696,321 L702,330 L709,335 L719,337 L728,337 L737,342 L746,349 L750,353 L757,361 L763,367 L772,373 L779,378 L788,378 L798,383 L804,389 L810,397 L813,409 L822,409 L831,411 L840,414 L846,425 L855,428 L868,427 L882,426 L896,423" id="Adorn"></path>
            </g>
            <path d="M1737,3322 L1741,3304 L1747,3291 L1754,3282 L1739,3275 L1720,3273 L1706,3270 L1689,3259 L1677,3266 L1664,3265 L1659,3250 L1645,3249 L1645,3237 L1648,3225 L1645,3209 L1649,3191 L1649,3179 L1656,3168 L1666,3157 L1675,3144 L1687,3132 L1682,3116 L1689,3109 L1694,3102 L1689,3096 L1690,3086 L1696,3081 L1697,3074 L1699,3068 L1707,3059 L1717,3050 L1717,3038 L1714,3027 L1722,3019 L1732,3012 L1741,3003 L1747,2996 L1758,2997 L1763,3001 L1772,2997 L1778,2992 L1785,2993 L1798,2998 L1806,3000 L1811,3006 L1812,3015 L1817,3021 L1825,3030 L1827,3037 L1829,3048 L1831,3056 L1840,3058 L1848,3057 L1853,3061 L1860,3066 L1867,3066 L1874,3061 L1875,3054 L1876,3048 L1872,3042 L1870,3036 L1872,3028 L1876,3023 L1880,3014 L1876,3008 L1873,3002 L1879,2997 L1881,2987 L1885,2980 L1890,2974 L1896,2971 L1903,2968 L1906,2961 L1906,2954 L1916,2951 L1926,2947 L1930,2944 L1935,2942 L1942,2939 L1952,2940 L1959,2936 L1965,2927 L1971,2922 L1977,2919 L1982,2914 L1987,2914 L1992,2916 L2001,2911 L2009,2904 L2019,2901 L2027,2901 L2036,2895 L2042,2889 L2049,2885 L2057,2883 L2065,2883 L2074,2875 L2083,2869 L2089,2866 L2098,2862 L2102,2855 L2110,2845 L2118,2840 L2125,2836 L2130,2830 L2134,2824 L2142,2823 L2150,2821 L2154,2816 L2159,2809" id="Lefnui" stroke="#1C65AE" stroke-width="5"></path>
            <path d="M3234,4338 L3251,4352 L3275,4356 L3304,4355 L3318,4341 L3349,4338 L3369,4325 L3390,4320 L3414,4314 L3441,4301 L3457,4282 L3468,4282 L3481,4292 L3489,4298 L3507,4288 L3526,4286 L3547,4286 L3561,4279 L3576,4282 L3593,4290 L3612,4297 L3630,4300 L3649,4310 L3658,4317 L3678,4317 L3694,4328 L3709,4336 L3728,4341 L3749,4344 L3764,4344 L3779,4342 L3798,4342 L3815,4333 L3831,4331 L3840,4331 L3856,4324 L3874,4315 L3889,4313 L3904,4302 L3936,4284 L3945,4271 L3954,4261 L3971,4258 L3984,4250 L3995,4243 L3997,4238 L4007,4232 L4016,4221 L4014,4206 L4012,4193 L4012,4179 L4008,4169 L4005,4160 L4009,4152 L4015,4143 L4014,4130 L4015,4116 L4021,4107 L4027,4102 L4040,4096 L4054,4087 L4064,4075 L4076,4071 L4089,4070 L4097,4066 L4103,4058 L4110,4052 L4118,4049 L4129,4045 L4135,4038 L4138,4029 L4144,4019 L4149,4013 L4151,4005 L4155,3991 L4155,3978 L4155,3970 L4159,3961 L4164,3948 L4171,3934 L4180,3923 L4188,3914 L4200,3910 L4210,3901 L4222,3892 L4234,3886 L4246,3881 L4256,3878 L4266,3872 L4273,3863 L4280,3859 L4290,3855 L4304,3855 L4318,3853 L4331,3849 L4343,3852 L4358,3848" id="Unknown-River-(South-Gondor)" stroke="#1C65AE" stroke-width="5"></path>
            <g id="Morthond-System" transform="translate(2522, 2880)" stroke="#1C65AE" stroke-width="5">
                <path d="M109,417 L135,389 L146,370 L151,351 L151,328 L155,311 L146,296 L133,283 L123,278 L115,264 L103,260 L88,257 L81,251 L76,244 L65,244 L55,247 L46,247 L38,241 L34,236 L33,223 L33,212 L25,208 L17,210 L12,205 L12,195 L10,189 L0,184 L0,178 L2,169 L12,167 L21,163 L29,158 L36,151 L46,152 L55,142 L61,136 L71,132 L82,123 L91,116 L96,106 L99,97 L102,90 L112,84 L119,76 L118,66 L118,59 L122,54 L127,47 L125,38 L126,32 L135,26 L140,20 L142,13 L140,5 L136,0" id="Morthond"></path>
                <g id="Ringló-System" transform="translate(150, 80)">
                    <path d="M0,280 L10,268 L26,259 L36,254 L47,256 L54,263 L67,259 L74,249 L85,246 L98,240 L112,237 L125,232 L135,231 L147,234 L156,233 L167,225 L175,216 L187,211 L201,209 L211,200 L218,189 L228,184 L238,183 L245,174 L253,167 L263,164 L273,160 L277,150 L282,141 L294,133 L301,124 L310,110 L318,103 L325,98 L328,86 L334,77 L337,70 L342,63 L348,57 L352,49 L356,45 L366,43 L374,45" id="Ringló"></path>
                    <path d="M132,231 L133,222 L139,211 L139,199 L139,189 L146,178 L156,167 L160,160 L163,150 L163,140 L162,134 L169,124 L174,119 L177,112 L179,102 L181,96 L184,90 L187,84 L185,78 L183,73 L183,64 L180,56 L177,47 L174,42 L168,35 L166,30 L162,26 L164,14 L157,8 L150,1 L142,0 L133,1" id="Ciril-/-Kiril"></path>
                </g>
            </g>
            <g id="Gilrain-System" transform="translate(2986, 3080)" stroke="#1C65AE" stroke-width="5">
                <path d="M0,405 L27,393 L43,384 L56,381 L73,380 L89,377 L102,362 L114,359 L120,348 L129,334 L129,321 L133,309 L136,301 L130,291 L131,284 L136,274 L140,256 L147,248 L154,239 L162,232 L162,222 L159,210 L165,204 L169,197 L170,189 L177,181 L187,173 L186,161 L185,154 L192,147 L199,140 L207,136 L209,125 L208,116 L207,106 L213,98 L217,89 L215,79 L217,70 L218,60 L218,47 L218,40 L221,32 L225,26 L224,14 L220,6 L219,0" id="Gilrain"></path>
                <path d="M85,378 L98,382 L110,384 L122,389 L135,386 L148,374 L159,370 L170,363 L175,353 L179,345 L185,335 L191,328 L199,321 L201,310 L203,300 L207,289 L214,283 L222,276 L227,256 L233,249 L239,244 L248,239 L254,233 L259,227 L261,220 L263,211 L269,207 L274,200 L279,189 L280,178 L283,162" id="Serni"></path>
            </g>
            <g id="Nurnen-System" transform="translate(4018, 2851)" stroke="#1C65AE">
                <path d="M474,682 L486,677 L499,662 L485,649 L477,637 L498,634 L511,626 L523,618 L539,612 L556,615 L570,613 L586,599 L618,586 L644,583 L662,577 L678,566 L695,555 L711,551 L737,553 L758,552 L781,551 L797,544 L816,534 L829,520 L845,506 L859,493 L875,483 L881,465 L885,487 L894,504 L907,516 L927,526 L938,534 L943,546 L948,559 L963,566 L982,570 L1003,570 L985,586 L958,601 L942,616 L923,635 L901,650 L877,669 L868,687 L849,709 L831,719 L808,714 L785,711 L762,703 L746,699 L729,693 L710,695 L691,700 L675,696 L664,694 L646,700 L628,701 L606,701 L588,707 L575,717 L560,729 L544,730 L530,721 L520,709 L511,698 L503,690 L474,682 Z" id="Sea-of-Nurnen" stroke-width="10" fill="#1C65AE"></path>
                <path d="M465,682 L447,674 L432,676 L411,690 L389,697 L368,692 L348,688 L333,680 L318,679 L307,670 L299,675 L290,673 L277,667 L263,667 L244,677 L230,691 L212,710 L187,730 L167,741 L151,741 L130,740 L111,742 L99,750 L82,766 L64,780 L49,792 L37,799 L17,808 L0,802" id="Nurnen-West" stroke-width="5"></path>
                <path d="M832,718 L831,735 L832,757 L820,775 L807,794 L802,811 L801,826 L813,839 L839,848" id="Nurnen-South" stroke-width="5"></path>
                <path d="M882,467 L881,447 L868,433 L857,421 L842,414 L822,413 L815,403 L799,399 L785,399 L767,402 L751,410 L740,411 L724,405 L707,406 L697,394 L688,380 L686,365 L686,352 L697,342 L702,333 L707,320 L722,312 L725,302 L725,288 L715,283 L712,270 L715,257 L716,248 L712,240 L697,239 L680,241 L667,239 L655,234 L650,226 L649,215 L652,202 L650,192 L630,194 L618,189" id="Nurnen-North" stroke-width="5"></path>
                <path d="M1003,570 L1017,561 L1026,549 L1037,528 L1041,514 L1057,499 L1075,493 L1099,489 L1119,473 L1128,467 L1134,454 L1140,445 L1158,438 L1179,431 L1197,422 L1215,415 L1224,405 L1235,406 L1243,397 L1244,384 L1251,380 L1259,384 L1268,379 L1276,367 L1281,355 L1293,340 L1298,327 L1294,308 L1289,293 L1278,281 L1266,269 L1252,258 L1235,247 L1214,235 L1205,231 L1188,224 L1171,220 L1158,214 L1149,207 L1138,199 L1128,191 L1120,181 L1120,172 L1123,158 L1119,146 L1106,139 L1097,135 L1089,135 L1077,129 L1069,122 L1056,118 L1054,112 L1045,108 L1039,100 L1036,93 L1028,87 L1022,78 L1010,70 L1002,63 L988,61 L976,57 L965,52 L950,35 L946,27 L945,17 L944,7 L935,4 L920,0" id="Nurnen-East" stroke-width="5"></path>
            </g>
            <g id="Anduin-System" transform="translate(2611, 298)">
                <g id="Ethir-Anduin" transform="translate(390, 3275)" stroke="#1C65AE">
                    <g id="Anduin-Delta-678" transform="translate(66, 19)">
                        <path d="M0,182 L25,144 L36,122 L49,106 L59,91 L68,79 L77,69 L90,59 L105,53 L121,39" id="Anduin-Delta-8" stroke-width="8"></path>
                        <path d="M2,147 L18,118 L32,102 L41,87 L52,76 L67,67 L82,60 L100,54 L113,45" id="Anduin-Delta-7" stroke-width="5"></path>
                        <path d="M0,114 L24,86 L42,73 L64,59 L80,53 L95,45 L110,39 L127,37 L148,29 L161,24 L181,18 L228,0" id="Anduin-Delta-6" stroke-width="8"></path>
                    </g>
                    <path d="M64,106 L85,88 L101,79 L117,72 L129,65 L146,57 L168,52 L184,43 L209,35 L232,35 L250,29" id="Anduin-Delta-5" stroke-width="8"></path>
                    <path d="M58,77 L80,63 L102,56 L122,53 L136,48 L150,44 L164,37 L179,28 L189,27 L205,27 L218,25 L244,22" id="Anduin-Delta-4" stroke-width="10"></path>
                    <g id="Anduin-Delta-123">
                        <path d="M41,58 L69,42 L82,38 L105,37 L126,36 L143,31 L164,19" id="Anduin-Delta-3" stroke-width="8"></path>
                        <path d="M23,37 L40,28 L55,19 L74,15 L90,14 L105,17 L119,17 L141,17" id="Anduin-Delta-2" stroke-width="10"></path>
                        <path d="M0,19 L31,4 L47,4 L71,0 L91,0 L113,5 L136,16 L153,19 L172,18 L203,15 L226,11 L245,10" id="Anduin-Delta-1" stroke-width="10"></path>
                    </g>
                    <line x1="209" y1="32" x2="235" y2="24" id="Path-71" stroke-width="11"></line>
                    <line x1="176" y1="24" x2="235" y2="14" id="Path-72" stroke-width="12"></line>
                    <path d="M179,46 L192,42 L206,42 L230,38" id="Path-73" stroke-width="8"></path>
                </g>
                <g id="Poros-(with-widening)" transform="translate(708, 3241)">
                    <path d="M110,142 L91,130 L84,129 L70,115 L64,109 L37,96 L20,78 L9,67 L0,60 L32,51 L37,62 L44,70 L50,82 L64,96 L70,102 L80,108 L85,117 L96,121 L106,126 L113,134 L116,141 L110,142 Z" id="Poros-Widening" fill="#1C65AE"></path>
                    <path d="M2,34 L21,59 L46,87 L76,113 L98,130 L114,141 L136,143 L155,143 L164,128 L180,117 L193,110 L208,110 L222,122 L235,115 L250,114 L265,111 L271,99 L281,87 L292,76 L305,76 L311,65 L323,53 L342,52 L355,42 L385,37 L404,41 L415,27 L427,10 L443,1 L462,0" id="Poros" stroke="#1C65AE" stroke-width="5"></path>
                </g>
                <g id="Sirith-System" transform="translate(697, 2767)" stroke="#1C65AE" stroke-width="5">
                    <path d="M121,453 L126,434 L128,418 L116,395 L122,378 L126,366 L122,349 L117,339 L117,325 L115,314 L121,299 L121,286 L116,275 L106,265 L100,259 L99,247 L102,236 L103,226 L93,216 L96,205 L93,196 L85,189 L86,177 L91,171 L94,164 L96,157 L93,150 L92,140 L93,132 L97,127 L103,121 L107,116 L106,107 L102,99 L101,91 L104,83 L108,75 L107,64 L108,57 L112,47 L116,40 L114,32 L114,25 L118,19 L123,14" id="Sirith"></path>
                    <path d="M86,179 L78,169 L72,163 L66,152 L62,145 L56,141 L50,138 L44,138 L43,132 L44,124 L43,117 L38,115 L33,111 L33,106 L33,99 L31,94 L29,88 L31,81 L30,76 L25,73 L19,70 L16,69 L15,63 L11,59 L6,55 L3,50 L5,44 L6,38 L10,34 L11,29 L7,19 L8,13 L6,8 L2,5 L0,0" id="Celos"></path>
                </g>
                <path d="M1003,2992 L992,2974 L988,2962 L981,2954 L971,2947 L965,2938 L963,2929 L956,2918 L955,2909 L953,2901 L946,2891 L939,2887 L939,2879 L936,2869 L934,2864 L931,2860 L926,2858 L919,2858 L915,2852 L909,2849 L904,2848 L893,2847 L889,2842 L888,2833 L884,2824 L880,2816 L876,2808 L871,2802 L869,2795 L864,2788 L858,2786" id="Erui" stroke="#1C65AE" stroke-width="5"></path>
                <g id="Lower-Anduin-(with-anabranch-and-widening)" transform="translate(625, 2324)" stroke="#1C65AE">
                    <path d="M0,960 L42,953 L90,943 L121,932 L154,914 L170,906 L192,894 L213,890 L234,879 L263,860 L291,838 L313,817 L325,796 L340,773 L352,750 L360,726 L369,703 L370,679 L370,662 L370,631 L364,613 L355,593 L349,570 L349,549 L351,530 L359,517 L377,505 L397,493 L416,478 L430,454 L442,457 L439,470 L434,487 L423,497 L406,506 L391,517 L375,533 L371,554 L371,573 L379,590 L389,612 L399,632 L399,656 L395,680 L387,719 L381,742 L365,777 L348,805 L327,836 L301,860 L273,883 L235,904 L201,921 L172,938 L154,952 L129,963 L114,969 L77,977 L51,977 L29,982 L3,991 L0,960 Z" id="Anduin-Widening" stroke-width="5" fill="#1C65AE"></path>
                    <path d="M424,332 L395,330 L374,323 L354,307 L343,291 L338,275 L328,258 L322,248" id="Anduin-(Lower)-Anabranch" stroke-width="18"></path>
                    <path d="M6,975 L35,963 L57,956 L79,951 L106,946 L137,936 L172,918 L197,906 L221,900 L246,884 L275,866 L294,850 L309,833 L326,815 L337,797 L347,782 L357,769 L364,747 L371,728 L379,709 L380,688 L382,667 L383,639 L381,625 L376,616 L371,601 L364,585 L361,575 L358,565 L357,553 L360,543 L360,531 L369,522 L380,514 L395,504 L408,496 L420,489 L429,479 L436,466 L437,458 L437,441 L432,388 L424,332 L419,299 L410,277 L383,260 L356,252 L321,252 L293,239 L252,227 L220,217 L201,209 L186,196 L168,178 L156,161 L145,143 L139,131 L123,114 L110,85 L98,58 L85,31 L77,0" id="Anduin-(Lower)" stroke-width="15"></path>
                </g>
                <g id="Entwash-System" transform="translate(127, 1961)" stroke="#1C65AE" stroke-width="5">
                    <path d="M648,527 L640,534 L629,539 L613,541 L600,543 L585,546 L569,548 L553,548 L542,548 L528,551 L516,552 L503,550 L489,546 L476,546 L462,546 L448,544 L438,538 L427,534 L416,525 L400,518 L389,512 L380,510 L367,512 L355,516 L347,512 L340,505 L331,507 L321,505 L312,499 L308,493 L302,489 L293,485 L283,485 L275,485 L269,484 L262,476 L254,469 L250,464 L242,459 L230,462 L220,459 L217,455 L213,445 L205,443 L200,436 L195,431 L196,422 L190,415 L184,409 L177,409 L167,411 L160,409 L155,405 L151,398 L148,393 L146,383 L147,375 L150,366 L156,358 L160,351 L162,343 L162,336 L162,329 L156,322 L147,314 L140,307 L137,300 L137,291 L137,285 L143,278 L149,270 L153,265 L151,256 L148,250 L146,242 L152,238 L154,234 L153,227 L150,221 L149,215 L152,209 L156,204 L159,197 L157,192 L153,189 L149,184 L147,177 L153,168 L155,158 L157,152 L156,147 L151,142 L146,135 L152,127 L156,123 L158,119 L154,114 L154,105 L154,98 L153,93 L147,89 L142,86 L140,80 L134,76 L127,72 L122,67 L118,57 L111,51 L108,46 L98,42 L92,40 L85,38 L81,38 L78,34 L72,30 L66,28 L61,27 L54,26 L48,22 L40,17 L31,16 L24,17 L16,10 L10,7 L6,3 L0,0" id="Entwash"></path>
                    <g id="Mouths-of-Entwash" transform="translate(394, 380)">
                        <path d="M331,207 L310,202 L299,202 L286,203 L272,199 L264,193 L252,192 L246,193 L235,197 L227,193 L216,187 L204,186 L197,185 L186,186 L174,185 L166,182 L157,178 L147,170" id="Entwash-Delta-7"></path>
                        <path d="M274,166 L263,166 L248,167 L242,171 L232,174 L222,172 L213,169 L205,163" id="Entwash-Delta-6"></path>
                        <g id="Entwash-Delta-1234">
                            <path d="M249,137 L242,137 L233,138 L223,137 L215,133 L206,137 L199,136 L190,142 L182,146 L171,148 L161,145 L152,142 L145,140 L136,145 L126,145 L114,145 L104,143 L92,144 L81,144 L71,147 L61,146 L53,141 L45,139 L40,135 L37,127" id="Entwash-Delta-4"></path>
                            <g id="Entwash-Delta-23" transform="translate(57, 49)">
                                <path d="M174,57 L158,59 L144,63 L128,63 L111,64 L97,66 L85,67 L72,73 L62,75 L51,74 L43,72 L32,72 L26,75 L17,78 L11,81 L3,81 L0,75" id="Entwash-Delta-3"></path>
                                <path d="M148,0 L143,10 L137,18 L130,26 L122,34 L112,37 L103,40 L94,43 L91,51 L87,59 L83,67" id="Entwash-Delta-2"></path>
                            </g>
                            <path d="M184,0 L184,10 L181,17 L178,24 L177,33 L175,40 L172,46 L168,52 L164,57 L162,64 L155,70 L149,75 L140,78 L130,82 L122,89 L112,93 L103,99 L91,102 L81,105 L70,112 L62,118 L55,124 L46,124 L33,126 L25,126 L18,129 L10,133 L0,134" id="Entwash-Delta-1"></path>
                        </g>
                    </g>
                </g>
                <path d="M670,2225 L675,2235 L683,2240 L696,2246 L706,2254 L714,2262 L720,2274 L719,2286 L717,2296 L714,2305 L714,2314 L708,2323 L705,2327 L699,2325 L688,2322 L678,2318 L672,2308 L665,2301 L658,2291 L654,2284 L654,2276 L654,2268 L656,2264 L659,2258 L663,2251 L665,2244 L669,2238 L669,2232 L670,2225 Z" id="Nen-Hithoel" stroke="#194F85" stroke-width="5" fill="#1C65AE"></path>
                <path d="M673,2237 L661,2195 L655,2151 L649,2121 L653,2090 L663,2057 L684,2022 L697,1999 L702,1976 L699,1950 L683,1933 L667,1920 L645,1914 L625,1908 L615,1896 L617,1878 L628,1865 L641,1854 L656,1844 L669,1827 L667,1806 L656,1792 L644,1778 L629,1773 L613,1780 L596,1788 L581,1795 L567,1796 L550,1794 L539,1781 L535,1765 L532,1744 L537,1731 L546,1720 L559,1708 L567,1696 L564,1675 L557,1662 L537,1659 L514,1654 L491,1649 L472,1641 L455,1628 L434,1613 L419,1599 L403,1586 L390,1576 L382,1568 L361,1560 L353,1549 L345,1536 L347,1516 L339,1504 L330,1491 L329,1474 L320,1455 L321,1432 L325,1414 L336,1400 L343,1383 L349,1366 L362,1353 L374,1342 L377,1325 L381,1314 L393,1309 L399,1298 L391,1273 L395,1259 L408,1247 L430,1229 L442,1214 L452,1199 L456,1191 L471,1184 L471,1168 L489,1146 L486,1122 L494,1097 L495,1082 L488,1065 L487,1045 L500,1026 L491,1010 L487,994 L488,966" id="Anduin-(Middle)" stroke="#1C65AE" stroke-width="10"></path>
                <path d="M535,1760 L520,1754 L511,1753 L506,1752 L504,1747 L499,1742 L492,1741 L483,1741 L472,1744 L465,1744 L457,1739 L449,1736 L443,1736 L435,1738 L428,1736 L422,1729 L415,1728 L412,1721 L406,1716 L405,1709 L400,1704 L392,1698 L385,1690 L379,1683 L374,1677 L368,1676 L368,1665 L365,1662 L359,1656 L355,1652 L351,1648 L343,1648 L335,1651 L328,1655 L319,1651 L308,1652 L299,1658 L294,1667 L282,1673 L276,1677 L269,1678 L260,1676 L254,1681 L248,1683 L238,1687 L230,1695 L222,1698 L211,1698 L203,1697 L196,1698 L191,1699" id="Limlight" stroke="#1C65AE" stroke-width="5"></path>
                <g id="Celebrant-System" transform="translate(0, 1187)">
                    <path d="M126,203 L115,203 L106,200 L98,198 L88,197 L81,197 L70,201 L57,203 L45,208 L35,206 L23,208 L13,204 L0,201" id="Nimrodel" stroke="#1C65AE" stroke-width="5"></path>
                    <path d="M325,278 L309,269 L296,267 L280,269 L265,271 L248,270 L239,263 L232,256 L222,251 L209,243 L196,239 L180,238 L168,232 L158,226 L150,214 L142,206 L125,202 L120,193 L110,181 L106,170 L102,159 L100,152 L96,148 L87,143 L82,134 L80,125 L78,116 L74,108 L71,103 L63,100 L54,96 L48,91 L41,84 L35,72 L32,61 L29,54 L24,48 L21,41" id="Celebrant-/-Silverlode" stroke="#1C65AE" stroke-width="5"></path>
                    <path d="M22,44 L16,39 L6,32 L3,22 L2,12 L3,6 L7,0 L13,0 L19,5 L25,13 L28,20 L28,29 L27,38 L22,44 Z" id="Lake-Mirrormere" fill="#1C65AE"></path>
                </g>
                <g id="Upper-Anduin-(with-anabranches)" transform="translate(208, 101)" stroke="#1C65AE" stroke-width="5">
                    <path d="M300,705 L305,694 L309,687 L311,680 L309,671 L304,664 L296,658 L288,647" id="Anduin-Anabranch-3"></path>
                    <path d="M220,419 L220,415 L222,407 L222,401 L219,397 L215,392 L210,387" id="Anduin-Anabranch-2"></path>
                    <path d="M194,339 L194,327 L195,314 L196,306 L194,297 L189,286 L181,275 L175,268" id="Anduin-Anabranch-1"></path>
                    <path d="M281,868 L286,847 L291,834 L302,813 L306,804 L306,793 L296,779 L303,749 L297,735 L297,724 L300,712 L299,698 L294,685 L288,673 L287,656 L287,644 L291,632 L292,618 L286,600 L286,586 L281,575 L277,563 L274,552 L273,539 L265,533 L258,517 L257,505 L251,492 L247,477 L242,461 L234,451 L225,435 L222,424 L218,416 L211,412 L207,401 L208,390 L210,378 L204,369 L196,347 L193,336 L185,325 L180,313 L175,297 L176,284 L176,275 L176,259 L176,248 L172,238 L172,228 L173,216 L171,205 L163,196 L164,184 L164,176 L162,165 L157,156 L153,150 L150,145 L149,139 L148,128 L150,122 L152,113 L150,99 L144,91 L139,85 L137,77 L131,69 L122,64 L116,54 L109,48 L105,41 L94,40 L87,38 L82,29 L75,25 L67,21 L57,21 L52,15 L47,13 L39,10 L32,9 L26,11 L17,12 L12,8 L8,4 L0,0" id="Anduin-(Upper)"></path>
                </g>
                <g id="Gladden-System" transform="translate(181, 905)" stroke="#1C65AE" stroke-width="5">
                    <path d="M307,67 L300,54 L294,42 L284,42 L277,45 L268,44 L260,40 L255,33 L249,32 L238,34 L230,38 L219,35 L213,31 L203,29 L196,29 L188,30 L183,27 L180,21 L175,17 L163,16 L143,17 L133,18 L125,21 L119,25 L112,23 L105,26 L97,34 L84,40 L75,39 L66,38 L56,39 L50,46 L42,48 L34,48 L26,46 L16,45 L8,45" id="Gladden-/-Ninglor"></path>
                    <path d="M57,38 L53,33 L49,31 L42,29 L36,26 L33,20 L25,12 L20,6 L13,1 L6,0 L0,0" id="Northern-Gladden-Source"></path>
                </g>
                <g id="Anduin-Alt-Source-2" transform="translate(243, 282)" stroke="#1C65AE" stroke-width="5">
                    <path d="M88,48 L86,39 L85,33 L81,28 L73,25 L67,20 L61,13 L54,7 L49,3 L43,1 L33,0" id="Anduin-Alt-Source-2b"></path>
                    <path d="M140,78 L130,75 L120,68 L115,60 L107,56 L98,54 L87,49 L76,46 L68,43 L56,44 L43,44 L33,40 L28,35 L18,33 L8,32 L0,30" id="Anduin-Alt-Source-2a"></path>
                </g>
                <g id="Anduin-Alt-Source-1" transform="translate(305, 0)" stroke="#1C65AE" stroke-width="5">
                    <path d="M22,160 L26,152 L28,144 L28,137 L26,126 L26,122 L29,116 L30,105 L32,95 L31,86 L39,80 L51,71 L58,64 L62,58 L64,53 L69,47 L77,44 L82,41 L83,35 L87,30 L95,21 L105,19 L111,11 L111,5 L106,0 L99,0" id="Anduin-Alt-Source-1b"></path>
                    <path d="M34,85 L36,74 L37,67 L40,60 L41,51 L41,40 L41,31 L38,25 L32,21 L26,17 L21,17 L17,18 L11,20 L5,18 L0,13 L0,8" id="Anduin-Alt-Source-1a"></path>
                </g>
            </g>
            <g id="Rhûn-System" transform="translate(3037, 314)">
                <g id="Celduin-System" transform="translate(746, 209)" stroke="#1C65AE">
                    <path d="M1288,966 L1275,938 L1267,920 L1254,905 L1235,895 L1216,893 L1181,891 L1159,892 L1146,890 L1133,877 L1118,878 L1099,886 L1080,894 L1053,904 L1028,913 L1000,917 L967,920 L938,924 L919,922 L893,921 L873,918 L856,909 L844,900 L836,888 L822,866 L819,850 L818,835 L818,822 L818,804 L821,787 L823,774 L825,761 L820,746 L816,735 L811,726 L806,718 L802,705 L800,695 L793,683 L787,671 L781,657 L766,653 L750,650 L733,651 L713,649 L696,644 L678,639 L664,632 L649,625 L632,621 L610,618 L601,620 L591,619 L581,618 L568,621 L552,615 L539,608 L528,598 L516,594 L500,590 L483,588 L465,585 L448,588 L430,594 L418,601 L404,609 L392,614 L380,614 L367,611 L350,605 L338,594 L328,582 L318,571 L304,567 L292,565 L280,563 L269,558 L261,553 L251,543 L246,533 L242,516 L237,503 L226,492 L216,484 L213,473 L203,464 L192,453 L179,447 L168,443 L155,439 L141,427 L130,421 L120,413 L106,402 L99,392 L89,382 L82,370 L72,357 L65,345 L58,334 L54,324 L47,313 L40,302 L32,283 L28,267 L19,254 L13,238 L7,227 L5,208 L3,189 L1,175 L2,158 L7,140" id="Lower-Running-/-Celduin" stroke-width="8"></path>
                    <path d="M5,144 L3,135 L2,123 L1,110 L2,99 L3,90 L6,85 L9,77 L13,70 L18,66 L23,69 L26,78 L27,87 L26,100 L24,110 L21,119 L17,128 L13,138 L5,144 Z" id="Long-Lake" stroke-width="5" fill="#1C65AE"></path>
                    <path d="M18,70 L18,62 L23,52 L28,44 L30,37 L31,28 L31,19 L26,15 L19,14 L10,14 L3,13 L0,6 L0,0" id="Upper-Running" stroke-width="5"></path>
                </g>
                <g id="Forest-River-System" stroke="#1C65AE" stroke-width="5">
                    <path d="M750,298 L743,296 L734,289 L722,289 L711,294 L699,296 L688,291 L674,290 L661,292 L646,290 L631,289 L615,287 L610,286 L598,289 L589,289 L580,286 L573,284 L558,281 L547,280 L536,280 L527,276 L517,277 L502,276 L491,277 L479,277 L473,277 L464,273 L450,269 L441,263 L428,267 L417,262 L407,257 L397,253 L387,250 L376,248 L366,245 L351,243 L338,242 L327,240 L320,232 L315,225 L306,221 L295,219 L288,216 L280,209 L275,202 L267,195 L260,192 L250,189 L241,179 L234,170 L224,164 L219,158 L211,152 L203,143 L195,138 L189,132 L184,128 L179,123 L175,113 L170,105 L162,103 L155,98 L152,95 L146,91 L140,88 L137,77 L127,73 L120,68 L112,61 L104,52 L98,46 L90,41 L85,35 L77,31 L67,27 L63,19 L52,19 L44,19 L39,18 L31,14 L18,15 L9,12 L3,12 L0,8 L0,0" id="Forest-River"></path>
                    <g id="Forest-River-b" transform="translate(449, 282)">
                        <path d="M323,193 L306,191 L293,187 L279,186 L263,186 L253,186 L236,186 L224,183 L212,179" id="Forest-River-b2"></path>
                        <path d="M94,0 L86,5 L82,12 L75,17 L66,22 L62,25 L56,28 L49,29 L44,34 L42,42 L34,46 L27,51 L22,58 L20,62 L16,66 L8,72 L3,80 L0,88 L1,97 L1,109 L0,116 L6,120 L16,126 L24,128 L29,131 L38,135 L46,137 L53,140 L58,145" id="Forest-River-b1"></path>
                    </g>
                </g>
                <path d="M1528,871 L1534,853 L1541,829 L1552,811 L1565,791 L1575,774 L1582,760 L1590,741 L1587,730 L1584,717 L1576,704 L1570,695 L1568,687 L1569,680 L1570,671 L1563,662 L1552,655 L1541,649 L1532,642 L1526,633 L1515,628 L1510,621 L1505,613 L1499,600 L1497,586 L1498,572 L1501,560 L1505,549 L1510,541 L1519,535 L1527,525 L1533,515 L1541,505 L1547,500 L1551,495 L1557,485 L1559,468 L1559,455 L1557,443 L1554,431 L1551,424 L1544,420 L1535,415 L1525,415 L1520,409 L1511,398 L1500,400 L1493,399 L1474,399 L1460,399 L1453,396 L1444,400 L1428,400 L1412,392 L1406,384 L1399,374 L1389,368 L1381,362 L1370,353 L1362,345 L1358,335 L1357,323 L1355,315 L1358,302 L1365,295 L1373,287 L1376,281" id="Carnen-/-Redwater" stroke="#1C65AE" stroke-width="5"></path>
                <path d="M2026,1165 L2036,1189 L2042,1208 L2048,1244 L2049,1278 L2041,1304 L2028,1319 L2013,1338 L1986,1352 L1971,1364 L1951,1389 L1935,1411 L1927,1435 L1929,1471 L1935,1498 L1947,1515 L1969,1527 L1983,1533 L1991,1554 L2006,1575 L2010,1609 L2017,1642 L2020,1668 L2016,1702 L2012,1727 L2016,1750 L2022,1727 L2038,1715 L2060,1689 L2081,1675 L2105,1658 L2124,1631 L2139,1619 L2157,1613 L2174,1590 L2193,1568 L2210,1552 L2218,1543 L2238,1547 L2251,1551 L2268,1567 L2279,1585 L2289,1603 L2308,1629 L2334,1658 L2364,1686 L2389,1715 L2402,1703 L2411,1684 L2414,1671 L2419,1639 L2414,1611 L2404,1587 L2391,1564 L2407,1548 L2425,1533 L2437,1508 L2439,1488 L2445,1477 L2458,1468 L2469,1463 L2471,1450 L2484,1444 L2498,1438 L2500,1420 L2498,1408 L2499,1399 L2508,1387 L2501,1378 L2497,1367 L2488,1353 L2486,1330 L2483,1315 L2474,1302 L2463,1294 L2453,1292 L2437,1295 L2441,1288 L2454,1276 L2466,1263 L2467,1243 L2461,1219 L2455,1202 L2456,1188 L2460,1178 L2467,1165 L2473,1158 L2476,1150 L2458,1154 L2444,1157 L2427,1163 L2406,1172 L2389,1183 L2376,1194 L2368,1207 L2355,1222 L2340,1233 L2321,1243 L2298,1246 L2284,1243 L2264,1236 L2242,1226 L2219,1221 L2199,1219 L2174,1224 L2145,1228 L2117,1235 L2098,1231 L2086,1220 L2077,1207 L2068,1194 L2056,1176 L2026,1165 Z" id="Sea-of-Rhûn" fill="#1C65AE"></path>
            </g>
        </g>
    </g>
</svg>